<?xml version="1.0" standalone="no"?>
<svg xmlns:xlink="http://www.w3.org/1999/xlink" id="wave" style="transform:rotate(0deg); transition: 0.3s" viewBox="0 0 1440 260" version="1.1" xmlns="http://www.w3.org/2000/svg"><defs><linearGradient id="sw-gradient-0" x1="0" x2="0" y1="1" y2="0"><stop stop-color="rgba(255, 255, 255, 1)" offset="0%"/><stop stop-color="rgba(255, 255, 255, 1)" offset="100%"/></linearGradient></defs><path style="transform:translate(0, 0px); opacity:1" fill="url(#sw-gradient-0)" d="M0,234L80,212.3C160,191,320,147,480,147.3C640,147,800,191,960,173.3C1120,156,1280,78,1440,56.3C1600,35,1760,69,1920,78C2080,87,2240,69,2400,73.7C2560,78,2720,104,2880,125.7C3040,147,3200,165,3360,143C3520,121,3680,61,3840,65C4000,69,4160,139,4320,156C4480,173,4640,139,4800,134.3C4960,130,5120,156,5280,151.7C5440,147,5600,113,5760,117C5920,121,6080,165,6240,173.3C6400,182,6560,156,6720,143C6880,130,7040,130,7200,130C7360,130,7520,130,7680,143C7840,156,8000,182,8160,182C8320,182,8480,156,8640,138.7C8800,121,8960,113,9120,112.7C9280,113,9440,121,9600,108.3C9760,95,9920,61,10080,78C10240,95,10400,165,10560,190.7C10720,217,10880,199,11040,160.3C11200,121,11360,61,11440,30.3L11520,0L11520,260L11440,260C11360,260,11200,260,11040,260C10880,260,10720,260,10560,260C10400,260,10240,260,10080,260C9920,260,9760,260,9600,260C9440,260,9280,260,9120,260C8960,260,8800,260,8640,260C8480,260,8320,260,8160,260C8000,260,7840,260,7680,260C7520,260,7360,260,7200,260C7040,260,6880,260,6720,260C6560,260,6400,260,6240,260C6080,260,5920,260,5760,260C5600,260,5440,260,5280,260C5120,260,4960,260,4800,260C4640,260,4480,260,4320,260C4160,260,4000,260,3840,260C3680,260,3520,260,3360,260C3200,260,3040,260,2880,260C2720,260,2560,260,2400,260C2240,260,2080,260,1920,260C1760,260,1600,260,1440,260C1280,260,1120,260,960,260C800,260,640,260,480,260C320,260,160,260,80,260L0,260Z"/></svg>